<?xml version="1.0" encoding="UTF-8" standalone="no"?>
<svg version="1.1" xmlns="http://www.w3.org/2000/svg" xmlns:xlink="http://www.w3.org/1999/xlink" width="1183.465" height="291.435" viewBox="0 0 1183.465 291.435" fill="#1C90BD">
<path d="M325.03,42.708 V 0 H 230.349 V 291.047 H 325.03 V 249.073 H 279.417 V 151.507 H 325.03 V 109.125 H 279.417 V 42.708 Z"/>
<rect x="451.86" width="49.069" height="290.793"/>
<path d="M972.432,0 924.025,0 906.83,130.214 887.311,0 838.884,0 881.766,177.438 V 290.803 H 931.537 V 177.397"/>
<path id="K" d="M121.061,290.803 86.558,123.64 H 86.446 L 116.321,0 H 67.222 L 49.079,120.358 V 0 H 0 V 290.803 H 49.079 V 159.825 L 72.013,290.803"/>
<use xlink:href="#K" transform="translate(631.979)"/>
<path d="M1183.465,0h-49.048v243.06c0,0-0.163,8.277-7.472,8.277c-6.9,0-6.615-8.277-6.615-8.277V0h-49.282l-0.011,243.06c0,0,1.937,48.375,56.407,48.375c54.002,0,56.021-48.049,56.021-48.049V0z"/>
</svg>